<svg xmlns="http://www.w3.org/2000/svg" viewBox="0 0 512 512" role="img" aria-label="Weather icon">
  <defs>
    <linearGradient id="sky" x1="0" y1="0" x2="1" y2="1">
      <stop offset="0" stop-color="#25A7F0"/>
      <stop offset="1" stop-color="#1976D2"/>
    </linearGradient>
    <linearGradient id="sun" x1="0" y1="0" x2="1" y2="1">
      <stop offset="0" stop-color="#FFD95A"/>
      <stop offset="1" stop-color="#FF9F1C"/>
    </linearGradient>
    <linearGradient id="cloud" x1="0" y1="0" x2="0" y2="1">
      <stop offset="0" stop-color="#FFFFFF"/>
      <stop offset="1" stop-color="#DDEEFF"/>
    </linearGradient>
  </defs>
  <rect x="20" y="20" width="472" height="472" rx="112" fill="url(#sky)"/>
  <g stroke="#FFD95A" stroke-width="22" stroke-linecap="round">
    <path d="M340 74v-34M340 258v34M248 166h-34M432 166h34M275 101l-24-24M405 231l24 24M275 231l-24 24M405 101l24-24"/>
  </g>
  <circle cx="340" cy="166" r="70" fill="url(#sun)"/>
  <path d="M118 385c-39 0-70-31-70-70s31-70 70-70c10 0 19 2 28 6 19-54 70-92 130-92 73 0 132 57 136 129 31 7 54 35 54 68 0 39-31 70-70 70H118z" fill="url(#cloud)"/>
  <path d="M118 385h278c39 0 70-31 70-70 0 62-50 112-112 112H118c-39 0-70-19-70-42z" fill="#B8D8F2" opacity=".42"/>
</svg>
